<svg width="40" height="40" viewBox="0 0 40 40" fill="none" xmlns="http://www.w3.org/2000/svg">
<g clip-path="url(#clip0_149_122)">
<path d="M5.854 2.00793C5.661 2.58293 5.437 3.10993 5.308 3.65893C4.242 7.82493 8.056 10.6849 11.737 11.3429C17.301 12.5559 19.632 18.1959 15.556 22.1189C14.873 22.7519 14.132 23.1829 13.141 23.1509C9.946 23.1019 6.751 23.1319 3.555 23.1309C1.439 23.1299 0 21.6859 0 19.5619C0 14.8929 0 10.2229 0 5.55393C0 3.47193 1.462 2.00893 3.54 2.00793C4.3 2.00793 5.06 2.00793 5.854 2.00793Z" fill="#FA454F"/>
<path d="M13.521 34.3129H15.153V35.9769H13.521V34.3129Z" fill="#FA454F"/>
<path d="M15.659 34.3129H17.291V35.9769H15.659V34.3129Z" fill="#FA454F"/>
<path d="M17.809 34.3129H19.441V35.9769H17.809V34.3129Z" fill="#FA454F"/>
<path d="M39.999 26.2469H37.226C37.226 27.2439 37.23 28.2679 37.225 29.2359C37.228 31.3169 34.387 31.3529 34.397 29.2519C34.397 29.0329 34.397 28.8129 34.397 28.5939C34.399 27.9879 34.397 26.8659 34.397 26.2469C33.513 26.2469 32.479 26.2439 31.595 26.2469C31.595 26.4559 31.595 28.2849 31.595 28.5939H31.6C31.598 28.8379 31.595 29.0819 31.589 29.3269C31.507 31.2119 28.907 31.3589 28.737 29.4269C28.675 28.3779 28.72 27.3029 28.708 26.2479H25.922C25.92 27.3779 25.935 28.4439 25.889 29.5559C25.86 30.1309 25.526 30.5029 25.007 30.7079C23.856 31.1379 22.846 30.1919 22.961 29.0009C22.961 28.3219 22.961 26.9099 22.961 26.2479H20.169C20.163 27.1879 20.175 28.2779 20.159 29.2099C20.147 30.0919 19.433 30.8019 18.551 30.8129C18.08 30.8189 17.607 30.7959 17.137 30.8199C16.818 30.8359 16.735 30.7099 16.74 30.4109C16.754 29.5299 16.753 28.6479 16.742 27.7669C16.732 27.0149 16.324 26.5579 15.587 26.5479C13.872 26.5259 12.157 26.5399 10.441 26.5379C10.171 26.5379 10.016 26.6519 9.933 26.9229C9.75 27.5239 9.805 28.0799 10.165 28.5999C10.404 29.0939 12.057 29.8249 13.078 30.1289C14.896 30.8019 14.687 33.1779 12.792 33.6329C20.991 33.6199 27.996 33.6589 36.464 33.6299C38.421 33.6249 40.007 32.0339 39.999 30.0769C40.004 28.7999 39.995 27.5239 39.999 26.2469Z" fill="#FA454F"/>
<path d="M11.782 30.572C11.109 29.682 9.89999 29.704 9.00899 29.166C8.14399 28.641 7.88399 27.873 8.15599 26.901C8.18499 26.796 8.19699 26.686 8.22399 26.538C7.65599 26.529 6.95499 26.511 6.63199 26.868C6.35099 27.149 6.31399 27.559 6.30399 27.92C6.27999 28.785 6.26999 29.749 6.28599 30.802C5.41299 30.84 4.38299 30.241 4.37399 29.011C4.35899 28.125 4.37099 27.137 4.36699 26.246H1.57799V28.39H1.58399C1.58599 30.034 1.58799 31.677 1.58899 33.321C1.67599 34.426 1.20899 35.174 0.0499878 35.412V38.118C2.36999 38.156 4.34799 36.383 4.39199 33.632C6.46799 33.632 8.51599 33.637 10.588 33.627C10.8 33.626 11.04 33.603 11.217 33.503C12.259 32.914 12.518 31.514 11.781 30.572H11.782Z" fill="#20AAB4"/>
<path d="M31.168 5.56588C31.247 3.58788 29.667 1.98188 27.633 2.00888C22.947 2.00588 18.262 2.00688 13.576 2.00788V1.99988C11.893 1.99988 10.528 3.36488 10.528 5.04788C10.482 7.88988 13.092 10.2939 15.759 10.9899C16.878 11.3239 18.028 11.6019 19.089 12.0759C24.028 14.1709 24.378 20.2829 19.673 23.0449L19.7 23.1319C22.331 23.1319 24.962 23.1319 27.592 23.1319C29.699 23.1319 31.168 21.6739 31.169 19.5739C31.171 14.9049 31.171 10.2359 31.167 5.56688L31.168 5.56588Z" fill="#20AAB4"/>
<path d="M39.999 1.99988H33.572V6.98188H39.999V1.99988Z" fill="#20AAB4"/>
<path d="M39.999 10.1229H33.572V15.1049H39.999V10.1229Z" fill="#20AAB4"/>
<path d="M39.999 18.2449H33.572V23.2269H39.999V18.2449Z" fill="#20AAB4"/>
</g>
<defs>
<clipPath id="clip0_149_122">
<rect width="40" height="40" fill="white"/>
</clipPath>
</defs>
</svg>
