<svg width="40" height="40" viewBox="0 0 40 40" fill="none" xmlns="http://www.w3.org/2000/svg">
<g clip-path="url(#clip0_424_1023)">
<path d="M31.7922 0H7.20782C4.88894 0 3 1.91398 3 4.27957V29.276C3 31.6416 4.88894 33.5555 7.20782 33.5555H13.7063V26.2796H10.8306C10.4641 26.2796 10.161 25.9713 10.161 25.5914V7.96415C10.161 7.58422 10.4641 7.27598 10.8306 7.27598H28.1694C28.5359 7.27598 28.839 7.58422 28.839 7.96415V25.5914C28.839 25.9713 28.5359 26.2796 28.1694 26.2796H25.2937V28.9821C25.2937 29.6272 25.2232 30.2652 25.0893 30.8817C24.8778 31.8351 24.5113 32.7455 24.0038 33.5555H31.7922C34.1181 33.5555 36 31.6416 36 29.276V4.27957C36 1.91398 34.1181 0 31.7922 0Z" fill="white"/>
<path d="M24.2363 11.2258V28.9821C24.2363 29.5484 24.1799 30.1075 24.0601 30.6523C23.8275 31.6989 23.3764 32.6954 22.7209 33.5556C22.6575 33.6488 22.587 33.7419 22.5095 33.828C22.3544 34.0144 22.1994 34.1792 22.0584 34.3154C20.5994 35.7778 19.1193 36.0574 17.2233 37.5269C16.9202 37.7635 16.6031 38.0287 16.2788 38.3369C15.567 39.0108 15.0595 39.6201 14.7635 40V22.2437C14.7635 21.6846 14.8269 21.1255 14.9467 20.5807C15.2004 19.4122 15.722 18.3226 16.4903 17.405C16.6453 17.2187 16.8004 17.0538 16.9414 16.9104C18.4004 15.4552 19.8875 15.1756 21.7835 13.6989C22.0866 13.4624 22.3967 13.1972 22.728 12.8889C23.4328 12.2222 23.9403 11.6058 24.2363 11.2258Z" fill="white"/>
</g>
<defs>
<clipPath id="clip0_424_1023">
<rect width="40" height="40" fill="white"/>
</clipPath>
</defs>
</svg>
