<svg width="40" height="40" viewBox="0 0 40 40" fill="none" xmlns="http://www.w3.org/2000/svg">
<g clip-path="url(#clip0_582_469)">
<path d="M39.6862 20.4134L35.2184 15.9457L30.7506 20.4134C30.7322 20.4319 30.7448 20.463 30.7711 20.464C30.88 20.4679 31.0822 20.5146 31.2057 20.7829C31.2971 20.9813 31.5003 21.0503 31.7025 20.9842C31.7492 20.9686 31.792 20.9579 31.828 20.9239C31.8863 20.8685 31.9407 20.8082 31.9962 20.7508C32.108 20.6361 32.2208 20.5204 32.3326 20.4057C32.5873 20.1441 32.845 19.8855 33.1036 19.6278C33.3973 19.3351 33.6929 19.0435 33.9875 18.7527C34.248 18.496 34.5086 18.2394 34.7702 17.9836C34.9189 17.8368 35.0687 17.691 35.2184 17.5451C35.2184 17.5451 35.2194 17.5441 35.2204 17.5432C35.2204 17.5432 35.2213 17.5441 35.2223 17.5451C35.372 17.691 35.5208 17.8378 35.6705 17.9836C35.9321 18.2403 36.1927 18.496 36.4533 18.7527C36.7488 19.0444 37.0434 19.3351 37.3371 19.6278C37.5957 19.8855 37.8534 20.1441 38.1081 20.4057C38.2199 20.5204 38.3327 20.6361 38.4445 20.7508C38.5009 20.8082 38.5544 20.8685 38.6128 20.9239C38.6487 20.9579 38.6915 20.9686 38.7382 20.9842C38.9404 21.0503 39.1436 20.9813 39.235 20.7829C39.3585 20.5146 39.5608 20.4679 39.6697 20.464C39.6959 20.463 39.7086 20.4319 39.6901 20.4134H39.6862Z" fill="white"/>
<path d="M39.2088 22.1432C39.1252 22.1743 38.8986 22.2394 38.7285 22.1082C38.5155 21.9439 38.2083 21.9196 38.0313 22.2161C37.8534 22.5127 37.2787 23.9264 35.2505 23.9935C33.2232 23.9254 32.6476 22.5117 32.4697 22.2161C32.2918 21.9196 31.9845 21.9439 31.7725 22.1082C31.6024 22.2394 31.3758 22.1743 31.2922 22.1432C31.2796 22.1383 31.2669 22.151 31.2718 22.1646C32.4123 25.3402 35.2077 25.1389 35.2505 25.136C35.2943 25.1389 38.0887 25.3402 39.2292 22.1646C39.2341 22.1519 39.2214 22.1383 39.2088 22.1432Z" fill="white"/>
<path d="M37.3283 17.2777L38.4173 18.3881V15.9953C38.4173 15.9768 38.3959 15.9671 38.3823 15.9787C38.322 16.0322 38.1908 16.1226 38.0449 16.0585C37.8446 15.9709 37.3478 15.935 37.3283 16.3803V17.2777Z" fill="white"/>
<path d="M20.4422 20.358C20.3829 20.4611 20.3702 20.5758 20.3731 20.6925C20.3751 20.7625 20.3819 20.8335 20.342 20.9045C20.3731 20.9064 20.3984 20.9084 20.4237 20.9084C20.7339 20.9084 21.044 20.9093 21.3552 20.9084C21.8997 20.9064 22.3518 20.5943 22.554 20.0877C22.6192 19.9253 22.6571 19.7562 22.6785 19.5743C22.8623 19.6346 23.045 19.6628 23.2347 19.6706C23.2317 19.8865 23.2502 20.0906 23.3076 20.289C23.3912 20.5787 23.5536 20.8043 23.8501 20.9015C24.1768 21.0085 24.5064 20.9939 24.8283 20.8753C25.0607 20.7897 25.2036 20.6235 25.2405 20.3736C25.259 20.2482 25.2376 20.1266 25.2055 20.006C25.1744 19.8894 25.1132 19.7863 25.0529 19.6677H25.1696C26.101 19.6677 27.0315 19.6677 27.963 19.6677C28.0058 19.6677 28.0476 19.6677 28.0894 19.6648C28.2751 19.6492 28.3957 19.5471 28.4472 19.3682C28.4638 19.3108 28.4667 19.2515 28.4676 19.1922C28.4696 19.1028 28.454 19.0114 28.5367 18.9239H25.0043C25.0208 18.8743 25.0344 18.8344 25.048 18.7955C25.1209 18.5806 25.1657 18.3599 25.1443 18.1314C25.118 17.8485 24.9838 17.6346 24.7145 17.5247C24.4432 17.4148 24.1622 17.4002 23.8764 17.4518C23.5545 17.5101 23.3241 17.6861 23.2074 17.9934C23.1131 18.2413 23.1102 18.4999 23.1413 18.7605C23.1481 18.8179 23.1695 18.8733 23.1588 18.9365C23.0616 18.9287 22.9682 18.9316 22.8778 18.9102C22.7329 18.8772 22.6902 18.8237 22.6902 18.6759C22.6902 18.3745 22.6902 18.0741 22.6902 17.7619C22.59 17.8145 22.4899 17.8213 22.3887 17.831C22.0747 17.8592 21.9298 18.0186 21.9298 18.3327C21.9298 18.7362 21.9298 19.1387 21.9298 19.5423C21.9288 19.9526 21.6877 20.1937 21.2764 20.1966C21.0907 20.1976 20.904 20.1995 20.7173 20.1966C20.59 20.1947 20.5025 20.253 20.4422 20.358ZM23.9415 18.2957C23.9814 18.2092 24.0446 18.148 24.1408 18.1295C24.347 18.0896 24.4782 18.2199 24.4393 18.427C24.3946 18.6652 24.2391 18.8023 24.0183 18.8782C23.9863 18.8889 23.9532 18.8966 23.9211 18.9064C23.9162 18.9073 23.9104 18.9064 23.8842 18.9064C23.8987 18.6993 23.8511 18.4922 23.9415 18.2957ZM23.9182 19.5967C24.066 19.6609 24.2157 19.7027 24.3479 19.7844C24.5162 19.8884 24.5755 20.0294 24.5181 20.1801C24.4637 20.324 24.3402 20.3765 24.1982 20.3152C23.9551 20.2112 23.8122 19.8553 23.9182 19.5967Z" fill="white"/>
<path d="M28.4103 18.639V17.8271C28.3033 17.9039 28.1905 17.9 28.0777 17.8981C28.0126 17.8971 27.9475 17.8961 27.8833 17.8981C27.7617 17.9039 27.6665 17.9778 27.6587 18.0984C27.648 18.2773 27.6558 18.4572 27.6558 18.639H28.4103Z" fill="white"/>
<path d="M25.8074 18.639H26.5522V17.8261C26.4433 17.9039 26.3334 17.9 26.2235 17.8971C26.1584 17.8961 26.0942 17.8952 26.0291 17.8971C25.891 17.9029 25.8035 17.9885 25.7986 18.1266C25.7948 18.2394 25.7967 18.3521 25.7986 18.464C25.7986 18.5223 25.7879 18.5816 25.8074 18.637V18.639Z" fill="white"/>
<path d="M14.7473 17.1231H15.5018V16.3113C15.3929 16.389 15.2831 16.3852 15.1732 16.3822C15.1081 16.3813 15.0439 16.3803 14.9787 16.3822C14.8407 16.3881 14.7532 16.4736 14.7483 16.6117C14.7444 16.7245 14.7464 16.8373 14.7483 16.9491C14.7483 17.0074 14.7483 17.0629 14.7483 17.1222L14.7473 17.1231Z" fill="white"/>
<path d="M16.6404 21.1475H17.9958C18.6531 21.1475 19.1869 20.6128 19.1869 19.9565V19.5598H19.6264C20.2642 19.5598 20.7825 19.0405 20.7825 18.4027V16.1926C20.6784 16.2704 20.5734 16.2665 20.4684 16.2636C20.4062 16.2626 20.3449 16.2617 20.2827 16.2636C20.1514 16.2694 20.0678 16.355 20.063 16.4931C20.063 16.5174 20.063 16.5417 20.063 16.566H20.061V18.4017C20.061 18.6409 19.8666 18.8354 19.6274 18.8354H19.1879V18.6001C19.1879 18.0867 18.7698 17.6686 18.2564 17.6686H17.9715C17.498 17.6686 17.1139 18.0536 17.1139 18.5262V18.6993C17.1139 19.1728 17.499 19.5568 17.9715 19.5568H18.4655V19.9535C18.4655 20.2122 18.2554 20.4222 17.9968 20.4222H16.9545V20.4261C16.9545 20.4261 16.9467 20.4261 16.9428 20.4261C16.8047 20.4309 16.7192 20.5146 16.7133 20.6458C16.7104 20.7071 16.7114 20.7693 16.7133 20.8315C16.7153 20.9365 16.7192 21.0416 16.6424 21.1456L16.6404 21.1475ZM17.9696 18.8364C17.8947 18.8364 17.8344 18.7761 17.8344 18.7012V18.5281C17.8344 18.4533 17.8947 18.393 17.9696 18.393H18.2545C18.3692 18.393 18.4635 18.4863 18.4635 18.602V18.8373L17.9696 18.8364Z" fill="white"/>
<path d="M9.31599 17.1231H10.0656V16.3113C9.95674 16.389 9.84687 16.3852 9.737 16.3822C9.67185 16.3813 9.60768 16.3803 9.54254 16.3822C9.40447 16.3881 9.31696 16.4736 9.3121 16.6117C9.30821 16.7245 9.31015 16.8373 9.3121 16.9491C9.3121 17.0074 9.3121 17.0629 9.31599 17.1231Z" fill="white"/>
<path d="M5.36256 17.1231H6.11319V16.3113C6.00429 16.389 5.89442 16.3852 5.78455 16.3822C5.7194 16.3813 5.65523 16.3803 5.59008 16.3822C5.45201 16.3881 5.36451 16.4736 5.35964 16.6117C5.35575 16.7245 5.3577 16.8373 5.35964 16.9491C5.35964 17.0074 5.36353 17.0609 5.36256 17.1231Z" fill="white"/>
<path d="M27.4846 18.639V17.8397C27.4263 17.8611 27.3796 17.8835 27.331 17.8932C27.2814 17.902 27.2299 17.8981 27.1793 17.8981C27.1006 17.8981 27.0208 17.8961 26.9421 17.901C26.838 17.9078 26.7476 17.9788 26.7398 18.0731C26.7233 18.2607 26.7321 18.4494 26.736 18.6399L27.4846 18.639Z" fill="white"/>
<path d="M16.6404 16.0643C16.5364 16.1421 16.4314 16.1382 16.3264 16.1353C16.2641 16.1343 16.2029 16.1333 16.1407 16.1353C16.0094 16.1411 15.9258 16.2267 15.9209 16.3647C15.9199 16.3997 15.9199 16.4347 15.9199 16.4697H15.918V19.5967H16.6404V16.0643Z" fill="white"/>
<path d="M13.2344 20.4271C13.1352 20.4261 13.0361 20.4251 12.9379 20.4271C12.7998 20.4319 12.7142 20.5155 12.7084 20.6468C12.7055 20.7081 12.7064 20.7703 12.7084 20.8325C12.7103 20.9375 12.7142 21.0425 12.6374 21.1466H14.1989C14.8446 21.1466 15.3696 20.6215 15.3696 19.9759V18.1207H14.6472V19.9759C14.6472 20.2229 14.4459 20.4241 14.1989 20.4241L13.2344 20.4271Z" fill="white"/>
<path d="M13.2111 17.6725H13.0934C12.5732 17.6725 12.1503 18.0955 12.1503 18.6156V18.8364H12.1308C11.4356 18.8364 10.8697 19.4022 10.8697 20.0974V21.1932C10.9748 21.1155 11.0807 21.1193 11.1867 21.1223C11.2489 21.1232 11.3121 21.1242 11.3744 21.1223C11.4415 21.1193 11.5066 21.0941 11.5484 21.0396C11.6155 20.9521 11.598 20.8364 11.5961 20.7333C11.5961 20.5321 11.5922 20.3318 11.5922 20.1305V20.0984C11.5922 19.8009 11.8343 19.5598 12.1308 19.5598H13.2111C13.7313 19.5598 14.1542 19.1368 14.1542 18.6166C14.1542 18.0964 13.7313 17.6725 13.2111 17.6725ZM13.2111 18.8364H12.8727V18.6156C12.8727 18.4941 12.9719 18.3949 13.0934 18.3949H13.2111C13.3326 18.3949 13.4318 18.4941 13.4318 18.6156C13.4318 18.7372 13.3326 18.8364 13.2111 18.8364Z" fill="white"/>
<path d="M8.27367 19.6638H9.81478C10.4021 19.6638 10.8795 19.1864 10.8795 18.5991C10.8795 18.0118 10.4021 17.5305 9.81478 17.5305H9.13416C9.0661 17.5305 9.01489 17.5305 8.98054 17.5305C8.86775 17.5286 8.75496 17.5266 8.64315 17.5305C8.50508 17.5354 8.41951 17.619 8.41368 17.7513C8.41076 17.8135 8.41174 17.8747 8.41368 17.937C8.41562 18.042 8.41951 18.147 8.3427 18.251H8.68884L9.81575 18.2578C10.0044 18.2578 10.158 18.4115 10.158 18.6001C10.158 18.7887 10.0044 18.9423 9.81575 18.9423H8.27464C8.16088 18.9423 8.06754 18.849 8.06754 18.7352V16.9724C8.06754 16.7031 8.07337 16.4415 8.07337 16.1596C7.96933 16.2374 7.86432 16.2335 7.75931 16.2306C7.69709 16.2296 7.63583 16.2286 7.5736 16.2306C7.44234 16.2364 7.35872 16.322 7.35386 16.46C7.35386 16.4629 7.35386 16.4659 7.35386 16.4688L7.34511 18.7323C7.34511 19.2447 7.76223 19.6618 8.27464 19.6618L8.27367 19.6638Z" fill="white"/>
<path d="M6.89104 17.2865C6.787 17.3643 6.68199 17.3604 6.57698 17.3575C6.51475 17.3565 6.4535 17.3555 6.39127 17.3575C6.26584 17.3623 6.18514 17.4411 6.17347 17.5675L6.16861 18.5505C6.16861 18.7654 5.99359 18.9404 5.77871 18.9404H5.74954C5.50549 18.9404 5.29742 18.7877 5.21477 18.5719L5.16324 18.2005C5.09226 17.7571 4.71014 17.4177 4.24635 17.4177H3.53072L4.48165 16.5504C4.66152 16.3871 4.67416 16.108 4.51081 15.9282L4.32024 15.7191L2.33672 17.5286L2.88997 18.1392H4.24635C4.33969 18.1392 4.42428 18.2034 4.44178 18.2948C4.47776 18.4747 4.59152 18.9394 4.28427 18.9394H2.22102C2.13156 18.9423 2.11406 18.9394 2.05961 18.9394C1.94682 18.9375 1.83404 18.9355 1.72222 18.9394C1.58415 18.9443 1.49859 19.0221 1.49275 19.1533C1.48984 19.2156 1.49081 19.2768 1.49275 19.339C1.4947 19.444 1.49859 19.5491 1.42177 19.6531H1.69402L2.97067 19.6618V20.0041C2.97067 20.1713 2.83455 20.3075 2.66731 20.3075H0.740183C0.56225 20.3075 0.417375 20.1626 0.417375 19.9847L0.410569 19.0697C0.39404 18.9511 0.315282 18.8782 0.194715 18.8733C0.132487 18.8704 0.0712316 18.8714 0.00900352 18.8733C-0.0960063 18.8752 -0.201016 18.8791 -0.305054 18.8023V19.9856C-0.305054 20.5622 0.163601 21.0309 0.740183 21.0309H2.66731C3.23319 21.0309 3.6931 20.571 3.6931 20.0051V19.6628H4.28524C4.54485 19.6628 4.77917 19.5559 4.94836 19.3838C5.16907 19.5578 5.44715 19.6628 5.74954 19.6628H5.77871C6.39321 19.6628 6.89104 19.164 6.89104 18.5505V17.2865Z" fill="white"/>
<path d="M3.01021 16.0461L1.95851 17.0368L2.28853 17.3872L3.34023 16.3964L3.01021 16.0461Z" fill="white"/>
<path d="M0.748934 23.9954H0.0605365V23.3518H-0.260327V24.961H0.0605365V24.3163H0.748934V24.961H1.0698V23.3518H0.748934V23.9954Z" fill="white"/>
<path d="M2.11212 23.3032C1.67652 23.3032 1.3226 23.6571 1.3226 24.0927V24.1957C1.3226 24.6313 1.67652 24.9853 2.11212 24.9853C2.54771 24.9853 2.90164 24.6313 2.90164 24.1957V24.0927C2.90164 23.6571 2.54771 23.3032 2.11212 23.3032ZM2.5798 24.1948C2.5798 24.4534 2.36978 24.6634 2.11115 24.6634C1.85251 24.6634 1.64249 24.4534 1.64249 24.1948V24.0917C1.64249 23.8331 1.85251 23.6231 2.11115 23.6231C2.36978 23.6231 2.5798 23.8331 2.5798 24.0917V24.1948Z" fill="white"/>
<path d="M4.10439 24.5429L3.66685 23.3032H3.205V24.961H3.52586V23.8681L3.91868 24.9843H4.28038L4.74514 23.7543V24.961H5.06601V23.3032H4.57207L4.10439 24.5429Z" fill="white"/>
<path d="M5.34409 23.9809V24.3056C5.34409 24.68 5.64842 24.9843 6.02179 24.9843H6.59934V24.6634H6.02179C5.82441 24.6634 5.66495 24.503 5.66495 24.3066V24.3046H6.59934V23.9838H5.66495V23.9818C5.66495 23.7845 5.82538 23.625 6.02179 23.625H6.59934V23.3041H6.02179C5.64745 23.3041 5.34409 23.6085 5.34409 23.9828V23.9809Z" fill="white"/>
<path d="M8.05781 23.3032L7.35969 25.0047H7.70681L7.87794 24.5886H8.61495L8.77732 25.0028L9.12347 25.0047L8.45452 23.3032H8.05781ZM8.0092 24.2677L8.25422 23.6707L8.48855 24.2677H8.0092Z" fill="white"/>
<path d="M10.2232 23.3032H9.32279V24.9435H9.64366V24.4194H10.2232C10.5071 24.4194 10.7385 24.188 10.7385 23.904V23.8185C10.7385 23.5346 10.5071 23.3032 10.2232 23.3032ZM10.4176 23.904C10.4176 24.011 10.3301 24.0985 10.2232 24.0985H9.64366V23.624H10.2232C10.3301 23.624 10.4176 23.7115 10.4176 23.8185V23.904Z" fill="white"/>
<path d="M11.9169 23.3032H11.0166V24.9435H11.3374V24.4194H11.9169C12.2008 24.4194 12.4323 24.188 12.4323 23.904V23.8185C12.4323 23.5346 12.2008 23.3032 11.9169 23.3032ZM12.1114 23.904C12.1114 24.011 12.0239 24.0985 11.9169 24.0985H11.3374V23.624H11.9169C12.0239 23.624 12.1114 23.7115 12.1114 23.8185V23.904Z" fill="white"/>
<path d="M13.0147 24.4729V23.3508H12.6938V24.4729C12.6938 24.75 12.9194 24.9755 13.1965 24.9755H13.7954V24.6547H13.1965C13.0963 24.6547 13.0147 24.573 13.0147 24.4729Z" fill="white"/>
<path d="M14.3409 23.3518H14.02V24.9444H14.3409V23.3518Z" fill="white"/>
<path d="M15.2267 23.3032L14.5461 25.0105L14.8941 25.0037L15.0624 24.5808H15.7945L15.9744 25.0067L16.3166 24.9921L15.6039 23.3032H15.2267ZM15.1907 24.2589L15.4182 23.6882L15.6594 24.2589H15.1907Z" fill="white"/>
<path d="M17.6127 24.4797L16.9525 23.3032H16.4926V24.9435H16.8135V23.7115L17.5427 25.0105H17.9346V23.3518H17.6127V24.4797Z" fill="white"/>
<path d="M18.2204 23.9945V24.3027C18.2204 24.6838 18.5306 24.994 18.9117 24.994H19.4854V24.6732H18.9117C18.7076 24.6732 18.5423 24.5069 18.5423 24.3037V23.9954C18.5423 23.7913 18.7085 23.626 18.9117 23.626H19.4854V23.3051H18.9117C18.5306 23.3051 18.2204 23.6153 18.2204 23.9964V23.9945Z" fill="white"/>
<path d="M19.675 23.9935V24.3017C19.675 24.6829 19.9852 24.993 20.3663 24.993H20.94V24.6722H20.3663C20.1641 24.6722 20.0007 24.5098 19.9968 24.3085H20.939V23.9877H19.9968C20.0007 23.7864 20.1641 23.624 20.3663 23.624H20.94V23.3032H20.3663C19.9852 23.3032 19.675 23.6124 19.675 23.9935Z" fill="white"/>
<path d="M22.2021 23.9867H21.6799C21.6109 23.9867 21.5545 23.9303 21.5545 23.8613V23.7504C21.5545 23.6814 21.6109 23.625 21.6799 23.625H22.626V23.3041H21.6799C21.4339 23.3041 21.2327 23.5044 21.2327 23.7514V23.8622C21.2327 24.1082 21.433 24.3095 21.6799 24.3095H22.2021C22.2711 24.3095 22.3275 24.3659 22.3275 24.4349V24.5467C22.3275 24.6158 22.2711 24.6722 22.2021 24.6722H21.2735V24.993H22.2021C22.448 24.993 22.6493 24.7927 22.6493 24.5458V24.434C22.6493 24.188 22.449 23.9867 22.2021 23.9867Z" fill="white"/>
<path d="M23.5429 24.0285V24.2677C23.5429 24.6673 23.8686 24.993 24.2682 24.993H24.8506V24.6722H24.2682C24.0456 24.6722 23.8647 24.4913 23.8647 24.2687V24.0295C23.8647 23.8068 24.0456 23.626 24.2682 23.626H24.8506V23.3051H24.2682C23.8686 23.3051 23.5429 23.6308 23.5429 24.0305V24.0285Z" fill="white"/>
<path d="M25.4467 23.3518H25.1258V24.9872H25.4467V23.3518Z" fill="white"/>
<path d="M25.6625 23.624H26.1992V24.9862H26.5201V23.624H27.0568V23.3032H25.6625V23.624Z" fill="white"/>
<path d="M28.3189 23.3518L27.9397 23.8545L27.5653 23.3518L27.1696 23.3576L27.7783 24.1753V24.9862H28.0991V24.1705L28.6991 23.3518H28.3189Z" fill="white"/>
<path d="M28.7098 22.0965H-0.0998957V22.4981H28.7098V22.0965Z" fill="white"/>
</g>
<defs>
<clipPath id="clip0_582_469">
<rect width="40" height="40" fill="white"/>
</clipPath>
</defs>
</svg>
