<svg width="40" height="40" viewBox="0 0 40 40" fill="none" xmlns="http://www.w3.org/2000/svg">
<g clip-path="url(#clip0_442_1069)">
<path d="M22.8998 18.2452C20.604 21.4978 18.4214 23.4568 14.2035 24.9119C13.8949 24.3542 13.6231 23.771 13.3938 23.168C13.8128 22.9755 14.2289 22.7802 14.6422 22.5792C18.5998 20.4674 20.7909 18.1376 22.5885 15.0775C23.064 14.2848 23.4009 13.9678 23.6189 13.9678C24.3068 13.9678 23.8425 17.0789 22.8998 18.2452Z" fill="white"/>
<path d="M28.5049 12.3513C28.2728 15.3719 28.0322 19.1652 23.6557 23.0661C21.7364 24.8099 19.0952 26.3952 16.3294 27.788C15.8623 27.3068 15.4349 26.7915 15.0442 26.2452C17.4674 24.7363 19.7689 23.0322 21.9317 21.1496C24.9381 18.3443 26.1865 15.6606 26.9763 12.1051C27.1405 11.202 27.4179 10.7689 28.0916 10.7689C28.1284 10.7689 28.1652 10.7689 28.2049 10.7746C28.6663 10.8029 28.6295 11.1454 28.5049 12.3513Z" fill="white"/>
<path d="M28.972 20.977C27.5198 25.328 23.4604 27.5785 19.9727 29.7894C19.7576 29.9111 19.5453 30.03 19.3386 30.1433C18.7357 29.7922 18.161 29.4016 17.6203 28.9685C17.9289 28.7165 18.3025 28.4249 18.7753 28.0824C21.0938 26.4009 26.7923 22.7604 28.0322 19.1652C28.1907 18.5396 28.2275 17.8404 28.7229 17.8404C28.7427 17.8404 28.7626 17.8404 28.7852 17.8432H28.7937C29.6005 17.8432 29.2438 19.9465 28.972 20.977Z" fill="white"/>
<path d="M39.65 18.2905C39.65 25.8262 33.5722 31.9352 26.0732 31.9352C23.8623 31.9352 21.776 31.4058 19.9331 30.4632C20.0379 30.4037 20.1454 30.3443 20.253 30.282L20.2643 30.2735L20.2756 30.2678C20.5474 30.0951 20.822 29.9253 21.0966 29.7498C24.3832 27.6946 28.1058 25.362 29.5099 21.1581L29.5156 21.1383V21.1213C29.725 20.3344 30.144 18.4235 29.5495 17.6507C29.3684 17.4129 29.1051 17.2827 28.8135 17.277C28.7824 17.2742 28.7512 17.2742 28.7229 17.2742C28.5276 17.2742 28.3662 17.3195 28.2332 17.3959C28.8192 15.638 28.9466 13.9847 29.0598 12.5014L29.0683 12.4023C29.1759 11.3605 29.224 10.885 28.9182 10.5226C28.7597 10.3329 28.5304 10.2282 28.2417 10.2084C28.1879 10.2056 28.1398 10.2027 28.0916 10.2027C26.7526 10.2027 26.5205 11.4483 26.4214 11.9947C25.7732 14.8963 24.7994 17.4016 22.2969 19.9947C22.6564 19.5474 23.0046 19.0803 23.3528 18.5877C24.2275 17.4837 24.7994 14.8227 24.3549 13.897C24.2049 13.5828 23.9359 13.4016 23.6189 13.4016C23.1376 13.4016 22.6847 13.8177 22.1044 14.7887C20.1737 18.0668 17.9374 20.1787 14.3846 22.0725C13.9911 22.2622 13.5977 22.449 13.2013 22.633C12.7456 21.2685 12.4993 19.8078 12.4993 18.2905C12.4993 10.7547 18.5771 4.64575 26.0732 4.64575C33.5693 4.64575 39.65 10.7547 39.65 18.2905Z" fill="white"/>
<path fill-rule="evenodd" clip-rule="evenodd" d="M22.8998 18.2452C20.604 21.4978 18.4214 23.4568 14.2035 24.9119C13.9232 25.0109 13.6345 25.1044 13.3344 25.1978C10.1921 26.0499 6.95363 26.7915 3.78591 27.4851C3.53396 27.4964 3.31881 27.5021 3.13764 27.5021C2.01662 27.5021 2.23177 27.2869 3.59058 26.7689C6.94797 25.8319 10.2261 24.6259 13.3938 23.168C13.8128 22.9755 14.2289 22.7802 14.6422 22.5792C18.5998 20.4674 20.7909 18.1376 22.5885 15.0775C23.064 14.2848 23.4009 13.9678 23.6189 13.9678C24.3068 13.9678 23.8425 17.0789 22.8998 18.2452Z" fill="white"/>
<path fill-rule="evenodd" clip-rule="evenodd" d="M28.5049 12.3513C28.2728 15.3719 28.0322 19.1652 23.6557 23.0661C21.7364 24.8099 19.0952 26.3952 16.3294 27.788C12.1822 29.88 7.7576 31.5389 5.05413 32.6514C4.18506 32.7986 3.66135 32.8071 3.22256 32.8071H3.00176C2.35632 32.8071 1.80431 32.8326 0.3634 33.3478C0.247335 33.3846 0.142593 33.3988 0.052006 33.3988C-0.202771 33.3988 -0.349976 33.2855 -0.349976 33.1553C2.73849 32.139 5.27494 30.9925 8.13693 29.8913C10.5262 28.8439 12.8333 27.6266 15.0442 26.2452C17.4674 24.7363 19.7689 23.0322 21.9317 21.1496C24.9381 18.3443 26.1865 15.6606 26.9763 12.1051C27.1405 11.202 27.4179 10.7689 28.0916 10.7689C28.1284 10.7689 28.1652 10.7689 28.2049 10.7746C28.6663 10.8029 28.6295 11.1454 28.5049 12.3513Z" fill="white"/>
<path fill-rule="evenodd" clip-rule="evenodd" d="M28.972 20.977C27.5198 25.328 23.4604 27.5785 19.9727 29.7894C19.7576 29.9111 19.5453 30.03 19.3386 30.1433C16.6691 31.6097 14.6196 32.3938 11.7095 33.4752C10.9678 33.7413 10.4667 33.846 10.1836 33.846C9.56368 33.846 9.97133 33.3478 11.1518 32.9062C12.8786 32.2608 13.7449 31.9465 15.1263 31.0548C16.2275 30.3443 16.42 29.9479 17.6203 28.9685C17.9289 28.7165 18.3025 28.4249 18.7753 28.0824C21.0938 26.4009 26.7923 22.7604 28.0322 19.1652C28.1907 18.5396 28.2275 17.8404 28.7229 17.8404C28.7427 17.8404 28.7626 17.8404 28.7852 17.8432H28.7937C29.6005 17.8432 29.2438 19.9465 28.972 20.977Z" fill="white"/>
</g>
<defs>
<clipPath id="clip0_442_1069">
<rect width="40" height="40" fill="white"/>
</clipPath>
</defs>
</svg>
